<mxfile host="Electron" modified="2024-05-21T03:29:48.176Z" agent="Mozilla/5.0 (Windows NT 10.0; Win64; x64) AppleWebKit/537.36 (KHTML, like Gecko) draw.io/24.2.5 Chrome/120.0.6099.109 Electron/28.1.0 Safari/537.36" etag="68SUiEnmwmO8Gaf1x8Px" version="24.2.5" type="device">
  <diagram name="第 1 页" id="QcCC6Qd4lS_TKr2LcZp_">
    <mxGraphModel dx="1098" dy="711" grid="1" gridSize="10" guides="1" tooltips="1" connect="1" arrows="1" fold="1" page="1" pageScale="1" pageWidth="827" pageHeight="1169" math="0" shadow="0">
      <root>
        <mxCell id="0" />
        <mxCell id="1" parent="0" />
        <mxCell id="4weDu3ezlmiVUiuuGjUG-3" value="权益&lt;div&gt;- type&lt;/div&gt;&lt;div&gt;- member&lt;/div&gt;&lt;div&gt;- content&lt;/div&gt;&lt;div&gt;- orderItemId&lt;/div&gt;&lt;div&gt;- equity_source_id&lt;/div&gt;" style="rounded=0;whiteSpace=wrap;html=1;fontSize=15;fontStyle=1" vertex="1" parent="1">
          <mxGeometry x="30" y="10" width="230" height="140" as="geometry" />
        </mxCell>
        <mxCell id="4weDu3ezlmiVUiuuGjUG-17" value="&lt;div style=&quot;font-size: 20px;&quot;&gt;&lt;span style=&quot;background-color: initial; font-size: 20px;&quot;&gt;type&lt;/span&gt;&lt;/div&gt;" style="rounded=0;whiteSpace=wrap;html=1;align=left;verticalAlign=top;fontSize=20;" vertex="1" parent="1">
          <mxGeometry x="90" y="180" width="680" height="530" as="geometry" />
        </mxCell>
        <mxCell id="4weDu3ezlmiVUiuuGjUG-23" value="" style="ellipse;whiteSpace=wrap;html=1;dashed=1;rotation=-60;fillColor=none;" vertex="1" parent="1">
          <mxGeometry x="210" y="400" width="460" height="210" as="geometry" />
        </mxCell>
        <mxCell id="4weDu3ezlmiVUiuuGjUG-22" value="" style="ellipse;whiteSpace=wrap;html=1;dashed=1;fillColor=none;" vertex="1" parent="1">
          <mxGeometry x="140" y="210" width="480" height="250" as="geometry" />
        </mxCell>
        <mxCell id="4weDu3ezlmiVUiuuGjUG-11" style="rounded=0;orthogonalLoop=1;jettySize=auto;html=1;exitX=0.5;exitY=1;exitDx=0;exitDy=0;" edge="1" parent="1" source="4weDu3ezlmiVUiuuGjUG-5" target="4weDu3ezlmiVUiuuGjUG-8">
          <mxGeometry relative="1" as="geometry" />
        </mxCell>
        <mxCell id="4weDu3ezlmiVUiuuGjUG-26" value="getSelfEquityByMemberId" style="edgeLabel;align=center;verticalAlign=middle;resizable=0;points=[];html=1;" vertex="1" connectable="0" parent="4weDu3ezlmiVUiuuGjUG-11">
          <mxGeometry x="0.0482" y="4" relative="1" as="geometry">
            <mxPoint x="53" y="-11" as="offset" />
          </mxGeometry>
        </mxCell>
        <mxCell id="4weDu3ezlmiVUiuuGjUG-12" style="rounded=0;orthogonalLoop=1;jettySize=auto;html=1;exitX=0.5;exitY=1;exitDx=0;exitDy=0;" edge="1" parent="1" source="4weDu3ezlmiVUiuuGjUG-5" target="4weDu3ezlmiVUiuuGjUG-9">
          <mxGeometry relative="1" as="geometry" />
        </mxCell>
        <mxCell id="4weDu3ezlmiVUiuuGjUG-5" value="member1" style="rounded=0;whiteSpace=wrap;html=1;fontSize=15;fontStyle=1" vertex="1" parent="1">
          <mxGeometry x="320" y="230" width="120" height="60" as="geometry" />
        </mxCell>
        <mxCell id="4weDu3ezlmiVUiuuGjUG-8" value="content1" style="ellipse;whiteSpace=wrap;html=1;fontSize=15;fontStyle=1" vertex="1" parent="1">
          <mxGeometry x="190" y="330" width="120" height="80" as="geometry" />
        </mxCell>
        <mxCell id="4weDu3ezlmiVUiuuGjUG-16" style="rounded=0;orthogonalLoop=1;jettySize=auto;html=1;exitX=0.5;exitY=1;exitDx=0;exitDy=0;entryX=0.5;entryY=0;entryDx=0;entryDy=0;" edge="1" parent="1" source="4weDu3ezlmiVUiuuGjUG-6" target="4weDu3ezlmiVUiuuGjUG-15">
          <mxGeometry relative="1" as="geometry" />
        </mxCell>
        <mxCell id="4weDu3ezlmiVUiuuGjUG-19" style="rounded=0;orthogonalLoop=1;jettySize=auto;html=1;exitX=0.5;exitY=0;exitDx=0;exitDy=0;entryX=0.5;entryY=1;entryDx=0;entryDy=0;" edge="1" parent="1" source="4weDu3ezlmiVUiuuGjUG-6" target="4weDu3ezlmiVUiuuGjUG-9">
          <mxGeometry relative="1" as="geometry" />
        </mxCell>
        <mxCell id="4weDu3ezlmiVUiuuGjUG-6" value="member2" style="rounded=0;whiteSpace=wrap;html=1;fontSize=15;fontStyle=1" vertex="1" parent="1">
          <mxGeometry x="400" y="500" width="120" height="60" as="geometry" />
        </mxCell>
        <mxCell id="4weDu3ezlmiVUiuuGjUG-20" style="rounded=0;orthogonalLoop=1;jettySize=auto;html=1;exitX=0.5;exitY=0;exitDx=0;exitDy=0;" edge="1" parent="1" source="4weDu3ezlmiVUiuuGjUG-7">
          <mxGeometry relative="1" as="geometry">
            <mxPoint x="500" y="410" as="targetPoint" />
          </mxGeometry>
        </mxCell>
        <mxCell id="4weDu3ezlmiVUiuuGjUG-7" value="member3" style="rounded=0;whiteSpace=wrap;html=1;fontSize=15;fontStyle=1" vertex="1" parent="1">
          <mxGeometry x="590" y="500" width="120" height="60" as="geometry" />
        </mxCell>
        <mxCell id="4weDu3ezlmiVUiuuGjUG-9" value="content2" style="ellipse;whiteSpace=wrap;html=1;fontSize=15;fontStyle=1;fillStyle=hatch;fillColor=#000000;" vertex="1" parent="1">
          <mxGeometry x="440" y="330" width="120" height="80" as="geometry" />
        </mxCell>
        <mxCell id="4weDu3ezlmiVUiuuGjUG-15" value="权益3" style="ellipse;whiteSpace=wrap;html=1;fontSize=15;fontStyle=1" vertex="1" parent="1">
          <mxGeometry x="294" y="610" width="120" height="80" as="geometry" />
        </mxCell>
        <mxCell id="4weDu3ezlmiVUiuuGjUG-27" value="getSelfEquityByMemberId" style="edgeLabel;align=center;verticalAlign=middle;resizable=0;points=[];html=1;" vertex="1" connectable="0" parent="1">
          <mxGeometry x="399.99849891731634" y="585.0037968270278" as="geometry" />
        </mxCell>
        <mxCell id="4weDu3ezlmiVUiuuGjUG-28" value="getSourceEquityByMemberId" style="text;whiteSpace=wrap;" vertex="1" parent="1">
          <mxGeometry x="400" y="460" width="150" height="70" as="geometry" />
        </mxCell>
        <mxCell id="4weDu3ezlmiVUiuuGjUG-30" value="getSourceEquityByMemberId" style="text;whiteSpace=wrap;" vertex="1" parent="1">
          <mxGeometry x="590" y="460" width="150" height="70" as="geometry" />
        </mxCell>
      </root>
    </mxGraphModel>
  </diagram>
</mxfile>
